HIERARCHY
ROOT hip
{
	OFFSET 0.000000 0.000000 0.000000 
	CHANNELS 6 Xposition Yposition Zposition Xrotation Zrotation Yrotation
	JOINT abdomen
	{
		OFFSET 0.000000 3.402643 0.000000 
		CHANNELS 3 Xrotation Zrotation Yrotation
		JOINT chest
		{
			OFFSET 0.000000 8.438565 -0.680529 
			CHANNELS 3 Xrotation Zrotation Yrotation
			JOINT neck
			{
				OFFSET 0.000000 10.207942 -0.272212 
				CHANNELS 3 Xrotation Zrotation Yrotation
				JOINT head
				{
					OFFSET 0.000000 3.130431 0.000000 
					CHANNELS 3 Xrotation Zrotation Yrotation
					End Site
					{
						OFFSET 0.000000 3.130435 0.000000 
					}
				}
			}
			JOINT lCollar
			{
				OFFSET 3.470700 6.669187 -0.816635 
				CHANNELS 3 Yrotation Zrotation Xrotation
				JOINT lShldr
				{
					OFFSET 3.198488 0.000000 0.000000 
					CHANNELS 3 Zrotation Yrotation Xrotation
					JOINT lForeArm
					{
						OFFSET 10.139888 0.000000 0.000000 
						CHANNELS 3 Yrotation Zrotation Xrotation
						JOINT lHand
						{
							OFFSET 8.370511 0.000000 0.000000 
							CHANNELS 3 Zrotation Yrotation Xrotation
							End Site
							{
								OFFSET 4.083176 0.000000 0.000000 
							}
						}
					}
				}
			}
			JOINT rCollar
			{
				OFFSET -3.470700 6.669187 -0.816635 
				CHANNELS 3 Yrotation Zrotation Xrotation
				JOINT rShldr
				{
					OFFSET -3.198488 0.000000 0.000000 
					CHANNELS 3 Zrotation Yrotation Xrotation
					JOINT rForeArm
					{
						OFFSET -10.139888 0.000000 0.000000 
						CHANNELS 3 Yrotation Zrotation Xrotation
						JOINT rHand
						{
							OFFSET -8.370511 0.000000 0.000000 
							CHANNELS 3 Zrotation Yrotation Xrotation
							End Site
							{
								OFFSET -4.083176 0.000000 0.000000 
							}
						}
					}
				}
			}
		}
	}
	JOINT lThigh
	{
		OFFSET 5.308129 -1.633274 1.361059 
		CHANNELS 3 Xrotation Zrotation Yrotation
		JOINT lShin
		{
			OFFSET -2.041588 -20.007561 0.000000 
			CHANNELS 3 Xrotation Zrotation Yrotation
			JOINT lFoot
			{
				OFFSET 0.000000 -19.190928 -1.224953 
				CHANNELS 3 Xrotation Yrotation Zrotation
				End Site
				{
					OFFSET 0.000000 -2.449906 4.627600 
				}
			}
		}
	}
	JOINT rThigh
	{
		OFFSET -5.308129 -1.633274 1.361059 
		CHANNELS 3 Xrotation Zrotation Yrotation
		JOINT rShin
		{
			OFFSET 2.041588 -20.007561 0.000000 
			CHANNELS 3 Xrotation Zrotation Yrotation
			JOINT rFoot
			{
				OFFSET 0.000000 -19.190928 -1.224953 
				CHANNELS 3 Xrotation Yrotation Zrotation
				End Site
				{
					OFFSET 0.000000 -2.449906 4.627600 
				}
			}
		}
	}
}
MOTION
Frames: 17
Frame Time: 0.033333
-0.107666 49.114685 -0.154784 -1.243947 0.204467 4.423870 0.000000 0.000000 0.000000 -3.427859 0.429762 -0.227001 3.924317 -0.107412 0.781249 6.815434 1.357394 0.371221 -1.815134 9.576365 -2.426007 -5.524361 -1.495747 -15.005646 -0.003360 -5.007908 20.296055 3.120305 -2.871774 -3.574881 0.589904 -8.402762 -2.516075 -2.616627 -11.390897 -14.229928 -0.000839 4.990061 18.042425 -5.467885 3.592908 -3.739260 3.278265 8.784170 7.149775 6.056429 -3.443700 -1.042999 -5.314100 0.306539 -5.575894 7.378657 -7.877667 -8.423086 0.420071 3.413338 -10.400153 -4.387788 -0.219812 5.979199 
-0.105436 49.118473 -0.137479 -1.153837 0.233680 4.414105 0.000000 0.000000 0.000000 -3.525525 0.448288 -0.238562 3.953214 -0.136706 0.781248 6.678905 1.386690 0.371221 -1.830370 9.599608 -2.504587 -5.661350 -1.399642 -14.995526 -0.008734 -5.004528 20.129871 3.122014 -2.734361 -3.577588 0.609076 -8.404769 -2.585106 -2.659721 -11.425736 -14.054020 -0.006160 4.990400 17.748140 -5.551105 3.676079 -3.743198 3.210673 8.745722 7.095975 6.057458 -3.424710 -0.983830 -5.296165 0.284250 -5.585283 7.319413 -7.924996 -8.449138 0.381696 3.413447 -10.383327 -4.366882 -0.183573 6.015291 
-0.107336 49.121365 -0.114408 -1.262689 0.214201 4.433636 0.000000 0.000000 0.000000 -3.437676 0.497818 -0.233435 3.954093 -0.078119 0.722656 6.706306 1.259746 0.322402 -1.804956 9.585715 -2.426022 -5.695076 -1.463696 -15.224719 -0.003102 -5.002149 20.442780 2.823213 -2.655243 -3.559030 0.526592 -8.507535 -2.517538 -2.473713 -11.470267 -14.082662 -0.004717 4.993843 17.483849 -5.539613 3.970974 -3.750184 3.443873 8.754587 7.118819 5.842450 -3.386902 -0.987521 -5.242552 0.286059 -5.604913 7.443918 -7.874865 -8.433106 0.429855 3.393463 -10.428553 -4.406007 -0.234581 6.026250 
-0.107765 49.125263 -0.092001 -1.401325 0.184964 4.541055 0.000000 0.000000 0.000000 -3.340028 0.531193 -0.295445 3.934868 -0.058590 0.664062 6.754835 1.474594 0.263836 -1.837256 9.593792 -2.345747 -5.698642 -1.487916 -15.251859 -0.007125 -5.005559 20.501947 2.815274 -2.685058 -3.559935 0.472690 -8.474582 -2.427766 -2.469022 -11.484595 -14.247150 -0.000191 4.990404 17.680042 -4.968641 3.605834 -3.706292 3.423535 8.800616 7.152873 6.226554 -3.367832 -1.236916 -5.388696 0.265180 -5.616338 7.679700 -7.817396 -8.465153 0.371408 3.393821 -10.383787 -4.458610 -0.183972 6.038022 
-0.100967 49.127018 -0.074372 -1.398568 0.214134 4.658244 0.000000 0.000000 0.000000 -3.349770 0.535400 -0.354697 3.935167 -0.039061 0.556640 6.675795 1.435535 0.234546 -1.906366 9.538331 -2.355271 -5.687396 -1.417202 -15.190098 -0.004294 -5.008991 20.638945 2.796972 -2.705744 -3.559918 0.440283 -8.512456 -2.437433 -2.442068 -11.592803 -14.182908 -0.006241 4.993364 17.855965 -4.935891 3.705483 -3.712444 3.276826 8.800319 7.042850 6.584142 -3.337062 -1.620869 -5.522438 0.298288 -5.604118 7.718607 -7.847149 -8.548499 0.362199 3.440232 -10.589959 -4.466147 -0.206259 5.986345 
-0.098281 49.115700 -0.066796 -1.373244 0.282248 4.707119 0.000000 0.000000 0.000000 -3.359497 0.495592 -0.360743 3.906164 -0.009765 0.507813 6.724144 1.318348 0.234538 -1.857975 9.526594 -2.355342 -5.695573 -1.461758 -15.205290 -0.006633 -5.003307 20.756483 2.945158 -2.725846 -3.568240 0.356542 -8.606796 -2.448565 -2.304008 -11.573066 -14.259224 -0.000936 4.993083 18.150248 -4.879815 3.758672 -3.702891 3.561409 8.695927 7.104125 5.787850 -3.397410 -1.110742 -5.224432 0.288233 -5.593026 7.690345 -7.895931 -8.604477 0.440374 3.411811 -10.535439 -4.530118 -0.261003 6.038526 
-0.091210 49.117714 -0.066702 -1.260840 0.340630 4.736418 0.000000 0.000000 0.000000 -3.466850 0.433582 -0.394118 4.062140 -0.039061 0.527344 6.402649 1.572254 0.224793 -1.895953 9.591085 -2.464374 -5.758135 -1.342689 -15.168313 -0.000369 -5.006782 20.932390 2.972609 -2.694818 -3.568197 0.371031 -8.608679 -2.548030 -2.262317 -11.551241 -14.142769 -0.008042 4.996343 17.983244 -5.188522 3.669588 -3.727135 3.484549 8.591545 7.014038 5.720607 -3.378284 -1.076267 -5.191882 0.312248 -5.582165 7.625844 -7.988143 -8.616418 0.420263 3.422067 -10.497859 -4.537095 -0.233853 6.060769 
-0.084184 49.117462 -0.065499 -1.290021 0.340620 4.755949 0.000000 0.000000 0.000000 -3.437567 0.453027 -0.395956 4.111328 0.000000 0.517578 6.451920 1.435532 0.263834 -1.922523 9.542150 -2.435466 -5.675514 -1.310034 -15.072974 -0.002358 -5.003311 20.805122 2.970178 -2.655877 -3.566282 0.386091 -8.589400 -2.517600 -2.265615 -11.523716 -14.164487 0.001515 4.990404 17.659737 -5.238213 3.519268 -3.727194 3.560699 8.537794 6.950261 5.577151 -3.296649 -1.015732 -5.130048 0.295293 -5.620280 7.641258 -8.013233 -8.640174 0.450008 3.430865 -10.574008 -4.522670 -0.206339 6.082717 
-0.074216 49.113312 -0.067225 -1.329723 0.330874 4.785245 0.000000 0.000000 0.000000 -3.359466 0.490997 -0.409355 4.072429 0.019531 0.478519 6.617388 1.269517 0.273587 -1.895784 9.518744 -2.364911 -5.638537 -1.371374 -14.978541 0.000842 -5.008994 20.698166 2.840749 -2.614602 -3.567402 0.357809 -8.577526 -2.448567 -2.252783 -11.503607 -14.312456 -0.003773 4.996347 17.934601 -4.997915 3.593377 -3.717035 3.413637 8.536541 6.929446 5.938075 -3.277367 -0.961158 -5.296868 0.308344 -5.628010 7.688539 -8.011844 -8.660128 0.410713 3.450527 -10.576927 -4.498118 -0.236613 6.048266 
-0.064423 49.106499 -0.069649 -1.322402 0.301679 4.785244 0.000000 0.000000 0.000000 -3.339982 0.531724 -0.393586 4.092316 0.058591 0.507822 6.597641 1.318347 0.254064 -1.867751 9.565701 -2.345704 -5.631240 -1.398572 -14.966104 0.000842 -5.008994 20.698166 2.849290 -2.594522 -3.566932 0.371981 -8.509580 -2.437462 -2.301533 -11.506640 -14.313153 0.001624 4.993082 18.120213 -5.048651 3.629911 -3.713658 3.560081 8.567094 6.992755 5.628750 -3.327288 -0.961434 -5.262262 0.250520 -5.609923 7.678800 -7.981879 -8.646095 0.430597 3.441464 -10.507143 -4.527569 -0.259551 6.049686 
-0.057757 49.093681 -0.075356 -1.320409 0.330911 4.707122 0.000000 0.000000 0.000000 -3.320509 0.549718 -0.307005 4.042969 0.000000 0.585938 6.929212 1.435537 0.215021 -1.872285 9.574504 -2.316831 -5.651591 -1.399274 -15.113336 -0.002358 -5.003311 20.805122 2.706125 -2.662511 -3.553595 0.414149 -8.540282 -2.408470 -2.335928 -11.486243 -14.211501 -0.000082 4.993082 18.140518 -4.967359 3.575852 -3.713586 4.197204 8.474036 6.937879 4.433982 -3.275590 -1.026890 -4.994163 0.297579 -5.638356 7.622704 -8.053689 -8.655403 0.508485 3.449610 -10.550605 -4.521315 -0.207648 6.092773 
-0.045444 49.091789 -0.097495 -1.343992 0.292049 4.541105 0.000000 0.000000 0.000000 -3.262043 0.639444 -0.187968 4.139728 -0.068353 0.751953 6.870362 1.503898 0.195502 -1.803609 9.540584 -2.267188 -5.644459 -1.388309 -15.124276 -0.007488 -5.003306 20.746752 2.671332 -2.733094 -3.554770 0.506863 -8.602050 -2.360145 -2.384129 -11.422607 -14.150580 -0.001789 4.993082 18.159975 -5.042311 3.522235 -3.714364 4.449726 8.404428 7.001405 3.814626 -3.270454 -0.516947 -4.762036 0.279282 -5.631742 7.551803 -8.060983 -8.656435 0.576616 3.478248 -10.360653 -4.525966 -0.222013 6.097343 
-0.033275 49.091946 -0.116216 -1.411389 0.311565 4.433688 0.000000 0.000000 0.000000 -3.174158 0.641283 -0.168523 4.267164 -0.029294 0.810547 6.833124 1.406233 0.283358 -1.740802 9.437887 -2.196669 -5.467978 -1.327881 -14.903968 0.000573 -5.005563 20.590357 2.607342 -2.649084 -3.547769 0.597641 -8.545979 -2.289606 -2.517173 -11.340596 -14.087478 0.001518 4.996121 18.228031 -5.102157 3.537856 -3.719619 4.607050 8.396517 7.011199 3.624328 -3.265999 -0.484983 -4.691829 0.228908 -5.641468 7.587309 -8.095407 -8.650578 0.586120 3.460061 -10.154820 -4.517948 -0.231899 6.103637 
-0.025744 49.132919 -0.129131 -1.382590 0.301808 4.482514 0.000000 0.000000 0.000000 -3.135077 0.628803 -0.196771 4.277713 0.029295 0.722661 6.832417 1.308579 0.273589 -1.684628 9.541868 -2.158236 -5.523353 -1.424049 -15.002724 -0.000014 -5.008994 20.687586 2.827458 -2.723397 -3.562206 0.550671 -8.435862 -2.239916 -2.591854 -11.298013 -14.174131 -0.000632 4.989908 18.395077 -5.007679 3.592743 -3.717647 3.133075 8.561387 6.949299 6.655710 -3.299286 -0.912022 -5.444350 0.303476 -5.515537 7.606528 -8.066255 -8.686338 0.400322 3.512682 -10.247006 -4.352792 -0.229721 6.016764 
-0.027931 49.119732 -0.133314 -1.294391 0.301784 4.541106 0.000000 0.000000 0.000000 -3.183810 0.538545 -0.217666 4.200222 0.087885 0.654311 6.911435 1.308574 0.312642 -1.711269 9.652126 -2.207947 -5.587311 -1.413219 -15.219680 -0.004923 -5.003309 20.775938 2.644481 -2.773862 -3.555059 0.539192 -8.299332 -2.288243 -2.713842 -11.325742 -14.228596 -0.003434 4.996082 18.639904 -5.350483 3.757389 -3.736103 3.141068 8.538191 6.957252 6.338272 -3.326301 -0.794563 -5.345587 0.291363 -5.540458 7.535059 -8.111415 -8.702447 0.391208 3.532083 -10.257058 -4.387457 -0.204751 6.006741 
-0.030498 49.121120 -0.135724 -1.208466 0.399128 4.550943 0.000000 0.000000 0.000000 -3.222796 0.434357 -0.178390 4.100564 -0.078119 0.732421 7.194163 1.699206 0.224800 -1.727969 9.312133 -2.246413 -5.166155 -1.398480 -14.896933 -0.002936 -5.006781 20.903204 2.784131 -2.814060 -3.564366 0.562897 -8.535450 -2.329700 -2.557039 -11.367778 -14.155411 -0.002453 4.992987 18.522352 -5.474665 3.867126 -3.745381 3.258496 8.393422 6.874984 5.869088 -3.336650 -0.645853 -5.105864 0.282988 -5.550877 7.444869 -8.207673 -8.735103 0.419774 3.512759 -10.235880 -4.374756 -0.198850 6.061987 
-0.033256 49.128780 -0.160491 -1.225734 0.418541 4.648599 0.000000 0.000000 0.000000 -3.173917 0.356579 -0.171037 4.159497 -0.058590 0.644531 7.182280 1.777338 0.146717 -1.767527 9.253214 -2.196625 -4.933729 -1.519996 -14.366934 -0.001296 -5.008189 21.275267 2.825715 -2.860794 -3.558801 0.655302 -8.606731 -2.279910 -2.404508 -11.530036 -13.944877 0.001813 4.992987 18.472862 -5.676583 3.794532 -3.763345 3.161867 8.405364 6.826079 6.113602 -3.327247 -0.886827 -5.155888 0.266472 -5.526958 7.456903 -8.209722 -8.774756 0.459069 3.520453 -10.398561 -4.410633 -0.234381 6.058218 
